<svg version="1.1" id="Layer_1" xmlns="http://www.w3.org/2000/svg" xmlns:xlink="http://www.w3.org/1999/xlink" x="0px" y="0px"
	 width="100%" viewBox="0 0 896 496" enable-background="new 0 0 896 496" xml:space="preserve">
<path fill="#000000" opacity="1.000000" stroke="none" 
	d="
M28.200878,250.034088 
	C27.953224,251.794495 27.755177,253.244690 27.537132,254.841339 
	C22.659033,251.629303 20.885027,245.489899 23.577087,240.633179 
	C30.494255,228.153992 37.655510,215.810287 44.600395,203.346222 
	C53.896431,186.662567 64.291328,170.606949 73.018784,153.601028 
	C76.433380,146.947479 82.175247,145.002930 89.187798,145.026810 
	C109.349586,145.095490 129.511871,145.001129 149.673965,144.998840 
	C162.671005,144.997375 175.669418,145.168427 188.664597,145.025711 
	C196.714294,144.937317 202.818268,147.753922 206.779388,155.033524 
	C212.800095,166.098145 218.974838,177.080154 225.193176,188.035370 
	C227.567764,192.218826 227.093597,196.580246 224.317383,199.693985 
	C220.759857,203.684006 215.719833,206.179367 210.067978,205.473633 
	C207.688934,205.176590 206.771805,202.354706 205.595139,200.378021 
	C200.332382,191.537018 195.039780,182.711288 189.956055,173.767441 
	C188.078827,170.464813 185.583481,169.155838 181.848785,169.163559 
	C153.855392,169.221497 125.860420,169.314041 97.869026,169.058273 
	C89.827545,168.984802 88.437172,175.687210 85.455116,180.321960 
	C79.002518,190.350662 73.309959,200.872055 67.398193,211.244156 
	C60.411701,223.501892 53.571991,235.843460 46.553761,248.082794 
	C44.864662,251.028473 45.724854,253.607162 47.147751,256.085663 
	C52.351116,265.149261 57.777016,274.085602 62.943630,283.169678 
	C69.825401,295.269287 76.399849,307.545868 83.419144,319.563721 
	C85.508972,323.141815 87.852554,326.582733 89.655991,330.328583 
	C91.024406,333.170868 93.561638,333.052429 96.079880,333.057129 
	C109.743408,333.082611 123.411270,333.325653 137.069351,333.063080 
	C152.386658,332.768646 167.692139,334.543427 183.020340,333.084198 
	C186.163773,332.784943 188.276764,331.889038 189.874130,329.115326 
	C199.901199,311.704010 210.187149,294.439087 219.993652,276.905518 
	C222.031174,273.262543 225.066284,269.878845 225.496109,265.389954 
	C223.548706,263.558350 221.265396,264.211639 219.203430,264.203339 
	C199.208511,264.122650 179.213226,264.135681 159.218109,264.094666 
	C156.721512,264.089539 154.221939,263.979126 151.729630,263.823273 
	C148.048737,263.593140 145.965408,261.961365 145.942596,257.889343 
	C145.921249,254.074768 145.418671,250.256485 145.013672,246.452011 
	C144.461349,241.263626 146.966507,239.061356 151.918396,239.190704 
	C156.909042,239.321091 161.899139,239.674530 166.887772,239.644730 
	C185.376877,239.534286 203.865219,239.295334 222.354034,239.126953 
	C230.514023,239.052643 238.632294,239.633942 246.706146,240.825150 
	C256.235931,242.231155 260.650970,254.042313 255.161453,263.389160 
	C248.433853,274.844086 241.311661,286.107819 234.960861,297.732025 
	C226.508682,313.202423 217.549286,328.361328 208.784698,343.640259 
	C206.970367,346.803131 204.877808,349.813629 202.800034,352.815857 
	C201.120407,355.242828 198.610413,355.628143 195.296204,355.129791 
	C203.045105,350.109711 200.455032,341.674835 202.910751,334.805969 
	C199.217911,332.102966 195.293335,332.610687 191.763443,334.602539 
	C188.097275,336.671265 184.391327,337.416748 180.290100,337.201965 
	C168.288559,336.573517 156.190430,336.626770 144.372498,338.285004 
	C127.673332,340.628174 111.362267,336.649384 94.848846,336.949249 
	C92.571495,336.990631 90.725311,335.882935 89.004601,334.455841 
	C82.368736,328.952362 82.156593,328.936188 74.191299,332.190338 
	C72.642876,329.651337 75.578415,325.815369 72.158470,323.760895 
	C69.162773,327.184692 68.907516,333.486755 72.040695,335.632355 
	C76.317116,338.560974 74.979713,341.894592 73.299957,345.732208 
	C54.840687,317.806091 38.471172,288.806427 22.400616,258.322021 
	C27.296181,259.077271 26.003275,264.394806 30.290047,264.259308 
	C30.696495,259.292480 31.195942,254.281693 29.721457,249.357040 
	C29.293104,247.926407 28.589567,248.903381 28.200878,250.034088 
M94.407692,156.885605 
	C91.562271,158.541016 88.716850,160.196442 85.764717,161.913940 
	C86.184929,163.711472 86.574478,165.377823 87.281876,168.403854 
	C90.719902,160.525696 95.600250,160.341003 101.475098,163.432312 
	C102.699028,164.076355 104.417595,163.895645 105.908707,163.899399 
	C128.559998,163.956284 151.211365,163.991608 173.862717,163.993103 
	C175.842163,163.993225 178.080475,164.351364 179.692001,163.077057 
	C183.009491,160.453766 185.972107,160.559082 189.061447,163.348984 
	C190.777115,164.898361 192.159882,163.520874 193.439743,162.500412 
	C194.805115,161.411789 194.117111,160.277191 193.537689,158.965515 
	C191.934128,155.335541 188.772018,154.615143 185.378143,154.252670 
	C182.397858,153.934357 178.909912,154.265121 176.761749,152.281982 
	C174.122894,149.845856 171.235138,149.254044 168.126221,149.308640 
	C148.834976,149.647598 129.490875,148.295135 110.273163,150.243378 
	C104.994286,150.778519 99.403107,152.708206 94.407692,156.885605 
M191.795883,259.687042 
	C198.868591,260.112183 205.724747,259.123230 212.304337,256.457153 
	C214.989319,255.369186 217.634628,255.095551 220.569489,255.521606 
	C225.247864,256.200745 230.003708,256.346313 235.385956,256.769318 
	C234.260223,253.892593 235.132889,249.978989 230.863174,251.307205 
	C227.635757,252.311188 224.247147,252.001022 221.219116,253.050491 
	C215.943817,254.878830 211.628540,253.160172 207.766495,250.109390 
	C202.198166,245.710770 196.334732,246.247437 190.377136,248.470947 
	C184.709290,250.586349 179.147446,252.566055 173.016174,250.551773 
	C172.093750,250.248734 170.933182,249.969757 170.085968,250.264221 
	C166.988953,251.340683 163.000275,252.826569 162.911224,256.033508 
	C162.822159,259.240631 167.087692,258.476166 169.477036,258.693634 
	C176.586700,259.340637 183.773788,258.533417 191.795883,259.687042 
M154.922699,257.868408 
	C153.787231,255.602417 150.747849,257.383148 149.790558,254.784027 
	C148.738968,256.552704 147.805756,257.760742 149.011002,259.330383 
	C151.022125,259.857605 152.782944,258.990784 154.922699,257.868408 
z"/>
<path fill="#000000" opacity="1.000000" stroke="none" 
	d="
M563.405640,331.583832 
	C564.352722,331.061523 565.044189,330.703278 566.154724,330.127899 
	C559.624817,325.443481 559.355835,318.665405 559.038635,312.040009 
	C558.688843,304.736633 559.617981,297.346466 557.719177,290.158875 
	C556.944275,287.225769 556.748901,283.634796 552.473083,283.219971 
	C548.094055,282.795074 542.603577,285.260437 542.223755,289.329895 
	C541.388184,298.280426 535.261414,305.465546 534.768555,314.449097 
	C534.608948,317.357666 533.453979,320.296387 531.771423,322.851959 
	C530.749390,324.404266 530.018127,326.055847 529.742371,327.908752 
	C528.740173,334.642395 524.524963,337.134277 517.948242,334.926483 
	C516.953308,334.592499 516.038818,334.172424 515.807068,333.071564 
	C514.220093,325.532227 509.424377,319.187683 508.816467,311.048706 
	C508.409180,305.595398 504.636200,300.393494 502.079620,294.400208 
	C499.981110,297.836945 497.470093,300.025665 498.321106,304.349030 
	C499.213562,308.882660 496.997742,313.274323 494.819855,317.137604 
	C492.405884,321.419678 490.658173,325.881836 489.590179,330.568481 
	C488.704529,334.454987 486.189514,335.052246 482.959167,335.094391 
	C479.816925,335.135406 477.643585,334.613403 475.891449,331.121979 
	C471.761322,322.891968 469.497192,313.968597 466.915070,305.365417 
	C464.179443,296.250641 459.699341,287.551544 458.815704,277.871796 
	C458.724182,276.869263 458.212006,275.677887 459.134064,275.090240 
	C462.160126,273.161774 465.595581,273.943481 468.866455,274.095917 
	C471.678162,274.226898 472.836853,276.559906 473.296234,278.861267 
	C475.468170,289.741699 479.055511,300.189728 482.671204,311.099426 
	C485.442352,309.186584 485.745819,306.242523 486.661896,303.761444 
	C489.883606,295.035370 492.039032,285.932129 496.392181,277.594604 
	C497.541016,275.394257 498.577454,274.032501 501.114166,274.081848 
	C503.554596,274.129333 505.779999,274.416321 506.864166,277.083984 
	C507.615051,278.931396 509.067017,280.675690 509.228912,282.550415 
	C510.104584,292.690155 517.313965,300.144836 520.293762,309.362732 
	C520.438904,309.811676 520.808228,310.188171 521.733215,311.620575 
	C523.695679,306.505066 525.423462,302.411316 526.841125,298.212830 
	C529.164490,291.331726 531.298096,284.386292 533.484863,277.459534 
	C534.017212,275.773254 535.205566,275.114929 536.857361,275.040314 
	C542.514221,274.784821 548.169250,274.475403 553.828247,274.285706 
	C557.907166,274.148956 555.864929,277.020966 555.874756,278.840088 
	C560.681763,278.274231 560.702515,272.279266 555.934998,259.604950 
	C558.615845,257.240814 561.786194,257.554260 564.743530,258.599091 
	C568.062500,259.771729 567.142395,262.980804 567.197083,265.529663 
	C567.368042,273.498749 567.306335,273.684692 574.926575,274.429138 
	C579.878235,274.912903 579.153809,278.340881 579.014282,281.390442 
	C578.843323,285.126312 576.693420,284.214935 574.118042,283.509613 
	C569.545105,282.257294 567.400879,283.924622 567.317810,288.695557 
	C567.143860,298.688934 567.145325,308.687744 567.251099,318.682495 
	C567.300598,323.362976 569.742065,324.955078 574.484375,323.588257 
	C576.558350,322.990540 578.543091,322.471405 579.645569,324.845642 
	C580.748840,327.221588 582.116943,329.750397 579.963440,332.309662 
	C577.341919,335.425293 568.052368,337.118805 564.468445,335.114471 
	C563.170471,334.388580 561.572693,333.655731 563.405640,331.583832 
z"/>
<path fill="#000000" opacity="1.000000" stroke="none" 
	d="
M88.300865,220.374863 
	C92.234077,213.248871 96.164314,206.559525 101.734604,200.118637 
	C102.801392,204.726852 101.941330,209.272720 104.368187,212.892975 
	C107.424057,217.451538 111.794754,214.739670 115.680870,214.503082 
	C117.092896,216.332245 115.730919,217.774216 114.991051,219.085007 
	C109.941551,228.031021 105.656830,237.427979 99.510544,245.731339 
	C96.807335,249.383224 96.751930,252.379669 99.631523,256.449280 
	C104.117935,262.789734 107.756523,269.784454 111.229073,276.763306 
	C112.800705,279.921844 115.160553,282.487823 116.658386,285.657043 
	C117.872604,288.226135 120.565170,287.788239 122.865891,287.795715 
	C137.516098,287.843445 152.166489,287.840973 166.816650,287.896637 
	C173.700073,287.922821 174.158554,288.511993 174.214157,295.311951 
	C174.241257,298.627991 174.680862,301.938965 174.868744,305.255890 
	C175.035507,308.199829 174.494095,310.651245 170.745132,310.680511 
	C150.779846,310.836426 130.814423,310.983521 110.849686,311.193726 
	C107.388557,311.230133 104.795334,310.100769 102.949951,307.023773 
	C92.702805,289.937592 82.667976,272.732849 73.044952,255.283768 
	C70.819725,251.248840 71.912842,248.070343 73.988091,244.620316 
	C78.762520,236.682999 83.430359,228.681564 88.300865,220.374863 
M164.641571,301.885498 
	C166.849533,300.918030 168.983139,299.845612 171.011032,297.665894 
	C167.364029,296.219910 164.307266,294.872223 160.700989,294.923798 
	C154.714447,295.009430 148.737030,294.978394 142.759155,294.111969 
	C134.529694,292.919067 126.208130,291.638092 118.407883,296.193878 
	C117.203232,296.897491 115.773544,296.766937 114.611679,295.897980 
	C112.665787,294.442657 110.360771,293.630310 108.966370,295.943787 
	C107.648560,298.130188 109.660431,299.813538 111.266197,300.595612 
	C128.831589,303.741119 146.332916,303.746460 164.641571,301.885498 
z"/>
<path fill="#000000" opacity="1.000000" stroke="none" 
	d="
M277.556671,278.894836 
	C282.739441,269.000214 288.728271,260.207092 298.685364,255.239365 
	C313.036499,248.079361 331.754089,248.577744 344.513367,261.359650 
	C344.983337,261.830475 345.500153,262.288391 345.843597,262.845734 
	C347.291687,265.195679 352.664246,265.928406 349.710907,270.015045 
	C346.779663,274.071136 339.831421,274.830719 336.519714,271.579803 
	C331.433167,266.586670 324.934448,265.136902 318.515656,263.923859 
	C310.969299,262.497772 298.106720,270.544495 294.535980,277.533722 
	C287.909546,290.503967 290.335236,302.670410 297.820007,314.131897 
	C300.453674,318.164856 305.495209,319.784027 309.901337,321.682465 
	C318.508759,325.391083 326.156677,322.092010 333.573914,318.015747 
	C336.576721,316.365540 338.282379,307.244171 336.342957,304.437134 
	C335.316467,302.951447 333.715515,303.168610 332.258667,303.159180 
	C326.930359,303.124725 321.600830,303.226105 316.273285,303.156250 
	C313.488068,303.119781 311.355316,302.364105 313.543762,298.999634 
	C314.335236,297.782867 314.714020,296.545410 314.059143,295.245728 
	C311.660797,290.486023 314.467133,289.800659 318.231262,289.804810 
	C327.722534,289.815338 337.214050,289.865204 346.704926,289.807434 
	C350.447632,289.784668 352.207825,291.389008 352.153564,295.210571 
	C352.051910,302.369598 352.156586,309.531342 352.083038,316.690979 
	C352.015533,323.262909 346.903625,326.398346 342.275360,328.903809 
	C332.536621,334.175873 322.175293,337.415161 310.772400,334.450867 
	C307.961548,333.720123 306.067078,332.974213 306.969971,329.842438 
	C304.696198,328.462585 303.323608,330.769196 301.519470,330.564240 
	C299.542969,329.753265 302.315186,328.061890 300.515350,327.034027 
	C295.148254,330.102753 291.471893,329.586853 292.053528,321.908203 
	C285.357880,322.320831 282.493011,317.539124 280.030792,312.646576 
	C274.635590,301.926056 274.922913,290.657959 277.556671,278.894836 
M340.285034,302.717957 
	C341.571075,308.170746 340.702911,313.795410 341.302246,319.705475 
	C344.878967,318.080872 347.241852,316.112671 347.410492,312.331757 
	C347.579742,308.537476 347.927094,304.735229 347.803375,300.949310 
	C347.720245,298.405151 347.654663,294.990845 343.821411,295.375458 
	C340.072479,295.751587 339.125244,298.485229 340.285034,302.717957 
z"/>
<path fill="#000000" opacity="1.000000" stroke="none" 
	d="
M733.805786,318.988647 
	C733.804138,313.658844 733.752808,308.825317 733.817749,303.993378 
	C733.858154,300.988220 732.799866,299.276764 729.498657,299.290161 
	C718.833069,299.333466 708.166992,299.315887 697.501587,299.245880 
	C693.718201,299.221008 693.211548,301.640228 693.199524,304.559784 
	C693.166565,312.559479 693.159973,320.559387 693.085999,328.558685 
	C693.064636,330.867249 693.331665,333.573822 690.484009,334.452484 
	C687.283447,335.440002 683.879639,335.680756 680.654907,334.610657 
	C679.119263,334.101074 679.409058,332.470581 679.881348,331.133423 
	C684.098267,319.195648 682.412170,307.083008 681.418945,294.874481 
	C680.624023,285.103516 681.093994,275.231049 680.954224,265.404327 
	C680.916382,262.743744 681.013855,260.022675 680.491577,257.442230 
	C679.814331,254.096085 679.509827,251.510696 684.005066,251.006943 
	C690.109253,250.322861 693.068298,251.794754 693.122864,256.415894 
	C693.242798,266.578857 693.204346,276.748657 692.940491,286.908081 
	C692.865601,289.789978 693.664307,291.112122 696.476379,290.777100 
	C707.273010,289.490723 718.064331,291.695557 728.894592,290.681030 
	C732.977539,290.298492 734.275635,289.447662 734.050720,285.133850 
	C733.600159,276.490509 733.795410,267.806946 733.914612,259.142639 
	C733.997925,253.085831 735.496826,251.898239 742.037231,251.995819 
	C748.360535,252.090149 749.143188,252.832062 749.156921,259.325500 
	C749.205627,282.324890 749.148621,305.324738 749.281860,328.323547 
	C749.307617,332.772980 748.131531,335.198425 743.117065,335.124390 
	C735.859863,335.017151 734.092651,334.019318 733.863892,328.484375 
	C733.740112,325.489075 733.818237,322.485474 733.805786,318.988647 
z"/>
<path fill="#000000" opacity="1.000000" stroke="none" 
	d="
M331.179810,195.031342 
	C330.184326,196.563202 329.398712,197.812744 328.509064,199.227737 
	C331.947266,203.670013 334.880066,208.120667 336.841980,213.377823 
	C341.143921,224.905441 335.040771,237.741043 323.033325,240.149658 
	C319.174713,240.923645 315.060486,240.828506 311.067596,241.180344 
	C302.461884,241.938629 293.774353,241.722549 285.127869,242.084732 
	C281.221497,242.248352 279.741974,240.579529 279.757843,236.788284 
	C279.857452,212.970444 279.893036,189.152222 279.887665,165.334137 
	C279.886749,161.366180 281.453705,159.684219 285.603699,159.788147 
	C294.091980,160.000748 302.627228,159.324356 311.072296,159.958328 
	C317.707397,160.456390 324.888092,161.073471 330.235229,165.449402 
	C339.387146,172.939041 339.542847,184.542709 331.179810,195.031342 
M324.776886,207.724442 
	C322.507202,206.126083 320.608124,203.970367 317.410797,204.007034 
	C309.775055,204.094589 302.136871,204.028885 294.500366,203.953827 
	C291.775360,203.927048 289.906281,204.796768 289.879547,207.818649 
	C289.819550,214.601334 289.792297,221.384750 289.822083,228.167557 
	C289.835358,231.195175 291.736450,231.988541 294.451813,232.022705 
	C301.415985,232.110336 308.374969,232.023468 315.348602,232.390594 
	C320.550415,232.664413 324.849121,230.363480 327.343262,225.127594 
	C330.301056,218.918335 328.674866,213.554367 324.776886,207.724442 
M319.882599,193.705566 
	C326.152130,190.166626 328.313171,185.241486 326.867004,177.787628 
	C325.935852,172.988220 320.622498,168.761017 314.103180,168.399353 
	C307.475128,168.031662 300.812866,168.279709 294.165588,168.260284 
	C292.163361,168.254440 290.262878,168.784744 290.164825,171.073242 
	C289.873932,177.862259 288.749054,184.643723 289.811707,191.460129 
	C290.092560,193.261719 290.721863,194.807556 292.818848,194.758789 
	C301.588959,194.554871 310.406555,195.850891 319.882599,193.705566 
M285.809875,201.483917 
	C285.566040,201.333435 285.332916,201.155762 285.070557,201.052155 
	C285.007294,201.027161 284.761932,201.234802 284.743988,201.356644 
	C284.074493,205.898987 283.787140,210.426590 285.889587,214.877625 
	C285.889587,210.617538 285.889587,206.357468 285.809875,201.483917 
M285.816986,177.489639 
	C285.592865,175.150238 286.322205,172.686218 284.825256,170.525375 
	C284.825256,175.124573 284.825256,179.723755 284.825256,184.322952 
	C285.158752,184.313141 285.492218,184.303345 285.825714,184.293533 
	C285.825714,182.321625 285.825714,180.349716 285.816986,177.489639 
z"/>
<path fill="#000000" opacity="1.000000" stroke="none" 
	d="
M584.683105,262.278046 
	C584.664307,261.148407 584.661804,260.481964 584.633606,259.816681 
	C584.306763,252.110947 584.803955,251.773560 592.498962,251.644485 
	C597.188782,251.565811 599.156189,253.322891 598.981873,258.099579 
	C598.742065,264.672699 598.921814,271.261139 598.921814,278.673798 
	C605.931702,275.459137 612.031372,273.688080 618.609009,273.792633 
	C629.113220,273.959564 637.197571,281.792572 637.252930,292.306854 
	C637.316895,304.461731 637.261108,316.617493 637.200256,328.772583 
	C637.171265,334.573578 636.349670,334.946533 629.301331,335.105469 
	C624.116089,335.222382 623.892822,332.337921 623.912781,328.368439 
	C623.966187,317.726013 625.113159,307.089935 624.077637,296.437653 
	C623.689087,292.440796 623.975708,287.830658 619.460571,286.210480 
	C614.766907,284.526245 609.739258,284.135803 604.997681,286.855225 
	C600.742126,289.295898 598.699890,292.544891 598.803772,297.752350 
	C598.989563,307.059692 598.469788,316.382874 598.164551,325.696777 
	C598.106750,327.459625 598.560669,329.370544 597.028320,331.301422 
	C593.346741,327.858948 589.866516,328.987427 585.970459,332.233093 
	C584.216919,308.957764 585.252808,285.827972 584.683105,262.278046 
z"/>
<path fill="#000000" opacity="1.000000" stroke="none" 
	d="
M423.429932,335.763000 
	C415.189636,333.086121 406.656464,331.594116 401.681366,323.955902 
	C389.435181,305.154419 395.335846,277.936707 420.406433,273.578308 
	C435.731293,270.914154 453.143433,278.676270 455.588074,296.852295 
	C457.244904,309.170837 455.127106,319.919647 445.864685,328.494476 
	C439.746429,334.158508 431.983887,335.797729 423.429932,335.763000 
M411.176788,312.091644 
	C413.996490,320.642334 422.162811,325.209015 430.582794,322.943665 
	C437.573853,321.062714 444.788361,311.506561 444.656525,304.269836 
	C444.647736,303.788361 444.607697,303.162872 444.316986,302.853546 
	C441.495972,299.851746 441.102295,295.629303 438.881775,292.301880 
	C432.522034,282.772003 419.697235,282.899200 413.108063,292.294037 
	C408.804321,298.430237 409.617523,304.749481 411.176788,312.091644 
z"/>
<path fill="#000000" opacity="1.000000" stroke="none" 
	d="
M830.129700,323.150238 
	C833.012695,320.167175 834.087463,317.697449 832.035889,313.632599 
	C829.537781,308.682983 830.603760,302.520874 832.883301,298.138367 
	C837.245911,289.751312 836.533142,282.361511 832.341248,274.547913 
	C830.753052,271.587494 829.875977,268.282928 830.253723,264.893524 
	C830.693115,260.952332 830.154846,257.325043 827.469666,253.909409 
	C830.516968,251.718353 833.582397,251.408676 836.576111,252.665665 
	C839.649902,253.956223 838.976807,257.087921 839.178101,259.673889 
	C839.625610,265.423157 838.455322,271.312500 840.552612,277.273590 
	C843.882019,276.253967 846.982361,275.238525 850.119812,274.355011 
	C863.931702,270.465240 875.620056,277.263000 879.345032,291.285034 
	C879.642578,292.405151 879.895203,293.690674 880.609680,294.518860 
	C883.099731,297.404846 882.102417,299.291504 880.038513,302.228516 
	C877.116577,306.386505 875.642883,311.224091 878.819885,316.581055 
	C880.913147,320.110809 878.613708,323.989319 876.293396,326.594116 
	C870.391907,333.219116 862.940002,336.853607 853.733032,336.187286 
	C850.383850,335.944946 847.789062,334.176605 845.012573,332.699066 
	C842.683228,331.459534 840.932617,330.877411 838.534302,333.431335 
	C835.657776,336.494720 831.389648,335.399750 827.678467,334.526093 
	C826.155518,334.167511 826.220154,332.575562 826.483459,331.145264 
	C827.008972,328.289856 828.317871,325.811920 830.129700,323.150238 
M839.176880,297.793793 
	C839.180725,302.126129 839.110168,306.460114 839.203796,310.790497 
	C839.407104,320.187836 849.384521,326.860840 858.165405,323.547607 
	C867.192993,320.141266 869.322571,312.099670 870.550720,303.997925 
	C871.560913,297.334106 866.403381,290.149597 859.695557,287.014435 
	C850.565857,282.747284 839.650879,287.998108 839.176880,297.793793 
z"/>
<path fill="#000000" opacity="1.000000" stroke="none" 
	d="
M800.006775,283.338867 
	C800.972473,279.613403 799.128784,274.701447 805.528564,274.859680 
	C812.230896,275.025330 812.905945,275.378082 813.148438,282.128418 
	C813.691711,297.255310 812.874023,312.405457 813.968811,327.528595 
	C814.148193,330.006592 815.187500,333.566254 811.905518,334.542603 
	C808.152649,335.658997 803.517151,336.422333 800.599243,333.166656 
	C798.181702,330.469299 796.471130,331.211487 794.281189,332.540985 
	C790.946899,334.565338 787.352966,335.737244 783.492249,336.059509 
	C770.164673,337.172028 761.705811,330.056732 761.035339,316.026947 
	C760.456238,303.910034 761.061157,291.739166 761.018616,279.592590 
	C761.001709,274.766144 764.177307,274.353668 767.714111,274.371613 
	C771.228821,274.389435 774.299500,274.724945 774.309998,279.638611 
	C774.331421,289.615326 774.649902,299.594391 775.017212,309.566162 
	C775.200989,314.556488 775.129944,320.183624 781.000366,322.130432 
	C786.998779,324.119751 792.786011,323.005127 797.725952,318.587524 
	C799.569641,316.938751 799.862793,314.981415 799.867310,312.756989 
	C799.887085,303.105560 799.943359,293.454224 800.006775,283.338867 
M809.692139,317.721863 
	C809.692139,312.400513 809.692139,307.079193 809.692139,301.757843 
	C807.117432,304.769104 808.885742,308.478668 807.070190,311.989227 
	C805.248779,309.346558 806.608215,306.557953 805.476135,303.953613 
	C804.960510,308.456940 804.391846,312.555481 804.069092,316.673279 
	C803.941406,318.302551 802.183899,320.540375 804.645630,321.527802 
	C807.125061,322.522339 808.673035,320.843323 809.692139,317.721863 
z"/>
<path fill="#000000" opacity="1.000000" stroke="none" 
	d="
M596.361877,189.650452 
	C602.019836,194.673813 603.323242,201.272552 604.124817,207.881866 
	C604.818787,213.603958 603.237427,215.071167 597.528809,215.125473 
	C586.700623,215.228500 575.870911,215.182159 565.043152,215.310303 
	C556.828369,215.407516 555.652344,217.450439 559.686951,224.473053 
	C566.466980,236.274338 578.622681,238.048416 591.545166,230.717545 
	C592.409912,230.226974 593.164062,229.545609 594.006714,229.011322 
	C595.891113,227.816483 597.803650,227.474045 599.311707,229.504089 
	C600.743896,231.432129 600.362915,233.555481 598.576782,234.845749 
	C590.919739,240.376923 582.495850,244.911575 572.864868,243.185287 
	C559.245667,240.744171 550.375549,231.426300 547.629761,218.501663 
	C543.062866,197.004410 557.925842,176.565994 582.053772,180.343948 
	C588.068359,181.285706 591.727417,185.897903 596.361877,189.650452 
M566.703613,190.027710 
	C561.716797,192.116562 558.883484,196.082764 557.483765,201.084839 
	C556.648865,204.068481 556.684753,206.811234 561.097290,206.807388 
	C571.073608,206.798706 581.050049,206.920654 591.026489,206.976089 
	C594.526123,206.995544 595.275635,205.180481 594.384277,202.081375 
	C591.010071,190.350006 578.661133,184.633575 566.703613,190.027710 
z"/>
<path fill="#000000" opacity="1.000000" stroke="none" 
	d="
M397.098846,233.691116 
	C396.529999,236.714371 399.217255,240.253738 395.761963,241.792984 
	C392.092712,243.427551 389.604675,240.671936 387.700439,237.704315 
	C383.879517,239.051254 380.269165,240.248932 376.714142,241.592880 
	C369.509460,244.316574 362.969391,242.660690 356.864563,238.565384 
	C353.444061,236.270813 352.631348,232.197342 351.527252,228.714859 
	C349.469940,222.225540 349.705017,215.368408 349.831146,208.578354 
	C349.967102,201.258179 349.894348,193.931870 349.781403,186.610260 
	C349.725861,183.010010 350.846069,180.952133 354.886810,180.978104 
	C358.794098,181.003204 360.161072,182.828110 360.142242,186.522476 
	C360.085449,197.673065 360.200775,208.824387 360.185913,219.975342 
	C360.178955,225.209534 359.845917,230.598984 365.767487,233.214828 
	C371.196289,235.613022 380.857086,233.711823 384.980316,229.798431 
	C387.665771,227.249634 388.979645,224.392441 388.919586,220.553528 
	C388.742645,209.239197 388.905334,197.919815 388.894653,186.602448 
	C388.891449,183.222290 389.576965,180.610703 393.817108,180.811234 
	C396.477997,180.937073 397.732361,181.962372 397.543365,184.821167 
	C396.477173,200.947235 397.318970,217.095627 397.098846,233.691116 
z"/>
<path fill="#000000" opacity="1.000000" stroke="none" 
	d="
M634.864929,179.785019 
	C641.956970,180.675186 648.545593,181.579590 653.179260,187.324020 
	C654.759033,189.282578 655.454773,190.969681 653.372009,192.937485 
	C651.352966,194.845108 649.533813,194.983963 647.278748,193.033646 
	C640.906189,187.522308 633.665588,186.679993 625.780579,189.353577 
	C622.299744,190.533829 620.540283,192.934433 620.338989,196.337448 
	C620.124634,199.962509 622.885010,201.643661 625.766968,202.678909 
	C632.805725,205.207336 639.925354,207.511230 647.017029,209.891693 
	C653.902283,212.202850 656.533325,218.124619 656.842651,224.250809 
	C657.178833,230.908813 654.296631,237.186768 647.583313,240.129364 
	C637.443909,244.573715 627.259766,244.529648 617.367554,239.055344 
	C615.283691,237.902145 613.711365,236.193604 612.162842,234.439545 
	C610.704773,232.787979 610.726807,231.152878 612.130615,229.518982 
	C613.510681,227.912872 615.162842,227.515213 617.020752,228.645721 
	C618.584534,229.597260 620.075684,230.668259 621.640259,231.618378 
	C627.887268,235.411850 634.441650,236.155777 641.188538,233.191971 
	C644.857544,231.580261 646.856934,228.675766 646.726868,224.506805 
	C646.594849,220.273026 643.593079,218.795197 640.307922,217.156143 
	C633.440674,213.729843 625.437317,213.662155 618.840759,209.369537 
	C613.636902,205.983215 610.106323,201.689987 611.211609,195.423279 
	C612.472656,188.273300 616.457153,182.838104 624.030029,181.014862 
	C627.427429,180.196884 630.868225,179.515945 634.864929,179.785019 
z"/>
<path fill="#000000" opacity="1.000000" stroke="none" 
	d="
M708.816589,222.455887 
	C707.820557,236.260834 700.966553,241.742355 687.738098,243.798920 
	C679.669067,245.053360 672.411682,241.348541 665.753967,237.025528 
	C662.532288,234.933609 661.307678,231.865570 664.168518,228.574005 
	C666.904724,225.425842 669.345337,227.266190 671.879517,229.321701 
	C677.934082,234.232742 684.785889,235.805389 692.480408,234.012619 
	C696.671143,233.036240 698.657043,230.339874 699.443054,226.466537 
	C700.230225,222.587784 698.081604,220.319687 695.033813,218.341446 
	C688.488953,214.093369 680.651245,213.591949 673.596924,210.702408 
	C664.054443,206.793701 660.753845,196.033813 666.648682,187.479141 
	C673.015320,178.239639 692.976318,177.932404 699.448120,183.645737 
	C700.740112,184.786285 702.064270,185.593109 703.692383,186.104263 
	C705.377197,186.633209 706.794373,187.708450 706.443787,189.713699 
	C706.130432,191.505417 705.522156,193.393127 703.728455,194.254837 
	C701.994019,195.088135 700.874634,193.620651 699.957397,192.530792 
	C694.375183,185.898712 686.927795,187.899551 680.058350,188.585281 
	C676.210388,188.969406 673.730286,192.186356 673.439758,196.336288 
	C673.151001,200.460770 675.896179,202.087997 679.320862,203.278687 
	C684.494019,205.077255 689.736511,206.671982 694.901489,208.505646 
	C701.881714,210.983749 707.021729,214.575424 708.816589,222.455887 
z"/>
<path fill="#000000" opacity="1.000000" stroke="none" 
	d="
M496.384583,204.417175 
	C496.345245,215.372528 496.244843,225.868561 496.340485,236.362823 
	C496.372955,239.926834 495.330475,242.264801 491.424500,242.314743 
	C487.273224,242.367813 487.780426,239.227142 487.774323,236.622604 
	C487.735931,220.296051 487.775146,203.969284 487.726410,187.642776 
	C487.715027,183.823532 488.621521,181.035904 493.212219,181.109146 
	C497.000793,181.169571 497.107605,184.027390 497.399292,187.999985 
	C501.207123,183.939819 505.529694,182.909775 509.566559,181.225784 
	C516.642700,178.274002 527.340759,180.570236 531.768188,186.700821 
	C534.602783,190.625854 536.050781,195.432190 536.134521,200.297089 
	C536.335205,211.954758 536.193298,223.618439 536.164246,235.279648 
	C536.161743,236.271667 536.073120,237.287659 535.846069,238.250458 
	C535.156311,241.175705 533.085510,242.290207 530.269592,242.115280 
	C527.386108,241.936142 526.875427,239.828094 526.877441,237.497086 
	C526.887390,225.835403 526.634521,214.163376 527.045410,202.515152 
	C527.422119,191.834763 521.692993,186.465698 510.940033,188.409729 
	C506.608551,189.192810 502.759308,191.374695 499.198517,193.775406 
	C495.638702,196.175400 497.205444,200.506073 496.384583,204.417175 
z"/>
<path fill="#000000" opacity="1.000000" stroke="none" 
	d="
M438.801514,234.254517 
	C443.724854,232.236343 444.604645,228.117783 445.344025,223.959122 
	C445.844727,221.142960 444.025635,219.857834 441.863373,218.572433 
	C435.455139,214.762909 428.145813,213.445374 421.183289,211.472305 
	C409.933624,208.284363 407.202362,199.383682 410.059570,190.762787 
	C411.851257,185.356964 416.434814,182.815643 421.378235,181.090912 
	C431.163971,177.676697 440.059845,180.847839 448.561737,185.487015 
	C452.827209,187.814545 450.511871,190.651810 448.839142,193.309128 
	C446.398102,193.662933 444.725403,192.249435 443.241180,191.150192 
	C438.033386,187.293167 432.184753,187.632828 426.452545,188.597427 
	C422.463318,189.268753 418.754761,191.253494 418.329987,196.152176 
	C417.913116,200.959702 421.468903,202.372742 425.047394,203.516373 
	C432.635742,205.941467 440.306824,208.253159 446.893158,212.874893 
	C456.886230,219.887207 455.695221,233.600845 444.945129,239.537170 
	C432.726593,246.284363 421.482391,243.195969 410.494263,236.641281 
	C407.357666,234.770187 407.552795,232.187805 409.382202,229.377060 
	C411.164490,226.638718 413.398376,226.930588 415.206329,228.879913 
	C421.770935,235.958008 430.057312,235.258087 438.801514,234.254517 
z"/>
<path fill="#000000" opacity="1.000000" stroke="none" 
	d="
M375.221954,308.007568 
	C375.247650,315.493011 375.295166,322.480133 375.282990,329.467163 
	C375.279236,331.627106 375.435303,334.180939 372.701935,334.769684 
	C369.628448,335.431732 366.405426,335.625824 363.460480,334.059204 
	C362.436584,333.514557 362.578766,332.396912 362.805359,331.375427 
	C365.129852,320.897400 363.760803,310.178650 364.688019,299.584259 
	C365.174377,294.027313 367.306427,289.503296 369.385406,284.374023 
	C366.828094,282.805420 364.570648,280.981506 363.228668,278.259979 
	C362.093048,275.957001 362.416138,274.501160 365.143951,273.874359 
	C369.991486,272.760406 373.965149,274.374146 376.538452,278.761902 
	C380.394562,276.660797 384.005951,274.077515 388.579803,273.394165 
	C392.005188,272.882385 393.931366,273.913116 393.947998,277.288727 
	C393.964447,280.627625 395.974091,285.206512 390.441681,286.166595 
	C386.965759,286.769806 383.645782,287.634094 380.384216,288.917603 
	C376.884155,290.295013 375.069977,292.652496 375.202362,296.530304 
	C375.327179,300.185883 375.223785,303.849274 375.221954,308.007568 
z"/>
<path fill="#000000" opacity="1.000000" stroke="none" 
	d="
M464.815552,232.916229 
	C464.800232,217.471832 464.756714,202.515610 464.792908,187.559555 
	C464.798737,185.150528 464.351532,182.401108 467.522888,181.282776 
	C471.438690,179.901947 474.059143,181.634125 473.973267,185.979126 
	C473.763245,196.606216 472.840454,207.216827 473.276276,217.860291 
	C473.520691,223.829483 473.630951,229.805511 473.968292,235.769028 
	C474.180420,239.519043 473.630127,242.524170 469.019562,242.661682 
	C464.368591,242.800385 464.875214,239.375229 464.797943,236.395538 
	C464.772095,235.399307 464.806763,234.401520 464.815552,232.916229 
z"/>
<path fill="#000000" opacity="1.000000" stroke="none" 
	d="
M471.857971,172.713608 
	C467.769653,174.179459 464.343262,173.626480 463.335999,169.415649 
	C462.491608,165.885803 465.244995,164.199814 468.396759,163.315979 
	C470.391632,162.756561 472.106354,163.142365 473.148529,164.883026 
	C474.766479,167.585419 474.483734,170.209381 471.857971,172.713608 
z"/>
<path fill="#000000" opacity="1.000000" stroke="none" 
	d="
M126.177368,347.955078 
	C131.662064,348.122223 136.756439,347.420837 141.654404,349.293121 
	C134.004395,352.898041 126.206619,351.213013 117.330864,350.542389 
	C120.244637,347.416443 123.149170,348.259064 126.177368,347.955078 
z"/>
</svg>